<svg width="41" height="40" viewBox="0 0 41 40" fill="none" xmlns="http://www.w3.org/2000/svg">
<path d="M20.92 18.3333C22.2385 18.3333 23.5274 17.9423 24.6238 17.2098C25.7201 16.4773 26.5746 15.4361 27.0792 14.2179C27.5837 12.9997 27.7158 11.6593 27.4585 10.3661C27.2013 9.07286 26.5664 7.88497 25.634 6.95262C24.7017 6.02027 23.5138 5.38534 22.2206 5.1281C20.9274 4.87087 19.5869 5.00289 18.3687 5.50747C17.1506 6.01206 16.1094 6.86654 15.3768 7.96287C14.6443 9.0592 14.2533 10.3481 14.2533 11.6667C14.2533 13.4348 14.9557 15.1305 16.2059 16.3807C17.4562 17.631 19.1519 18.3333 20.92 18.3333Z" fill="#231F20"/>
<path d="M30.92 35C31.362 35 31.7859 34.8244 32.0985 34.5118C32.411 34.1992 32.5866 33.7753 32.5866 33.3333C32.5866 30.2391 31.3575 27.2716 29.1695 25.0837C26.9816 22.8958 24.0142 21.6666 20.92 21.6666C17.8258 21.6666 14.8583 22.8958 12.6704 25.0837C10.4825 27.2716 9.2533 30.2391 9.2533 33.3333C9.2533 33.7753 9.42889 34.1992 9.74145 34.5118C10.054 34.8244 10.4779 35 10.92 35H30.92Z" fill="#231F20"/>
</svg>
